<?xml version="1.0" encoding="utf-8"?>
<!-- Generator: Adobe Illustrator 16.0.0, SVG Export Plug-In . SVG Version: 6.00 Build 0)  -->
<!DOCTYPE svg PUBLIC "-//W3C//DTD SVG 1.1//EN" "http://www.w3.org/Graphics/SVG/1.1/DTD/svg11.dtd" [
	<!ENTITY ns_extend "http://ns.adobe.com/Extensibility/1.0/">
	<!ENTITY ns_ai "http://ns.adobe.com/AdobeIllustrator/10.0/">
	<!ENTITY ns_graphs "http://ns.adobe.com/Graphs/1.0/">
	<!ENTITY ns_vars "http://ns.adobe.com/Variables/1.0/">
	<!ENTITY ns_imrep "http://ns.adobe.com/ImageReplacement/1.0/">
	<!ENTITY ns_sfw "http://ns.adobe.com/SaveForWeb/1.0/">
	<!ENTITY ns_custom "http://ns.adobe.com/GenericCustomNamespace/1.0/">
	<!ENTITY ns_adobe_xpath "http://ns.adobe.com/XPath/1.0/">
]>
<svg version="1.1" id="Capa_1" xmlns:x="&ns_extend;" xmlns:i="&ns_ai;" xmlns:graph="&ns_graphs;"
	 xmlns="http://www.w3.org/2000/svg" xmlns:xlink="http://www.w3.org/1999/xlink" x="0px" y="0px" width="960px" height="560px"
	 viewBox="0 0 960 560" enable-background="new 0 0 960 560" xml:space="preserve">
<metadata>
	<sfw  xmlns="&ns_sfw;">
		<slices></slices>
		<sliceSourceBounds  height="559.934" width="560" y="0.533" x="199.5" bottomLeftOrigin="true"></sliceSourceBounds>
	</sfw>
</metadata>
<g>
	<path fill="#F97F06" d="M723.728,36.276c-48.205-48.324-126.598-48.324-174.803,0l-320.49,320.371
		c-2.506,2.506-4.057,5.728-4.534,9.188l-23.745,175.876c-0.716,5.012,1.074,10.022,4.534,13.482
		c2.983,2.983,7.159,4.773,11.335,4.773c0.716,0,1.432,0,2.147-0.119l105.955-14.318c8.83-1.193,15.034-9.307,13.841-18.137
		c-1.193-8.83-9.307-15.034-18.137-13.841l-84.955,11.454l16.585-122.659l129.103,129.103c2.983,2.983,7.159,4.773,11.335,4.773
		c4.176,0,8.353-1.671,11.335-4.773l320.491-320.371C747.113,187.692,760,156.669,760,123.618S747.113,59.543,723.728,36.276z
		 M555.13,75.652l53.813,53.813l-292.45,292.451l-53.813-53.813L555.13,75.652z M392.021,497.324l-52.62-52.619l292.45-292.451
		l52.62,52.62L392.021,497.324z M706.903,181.845L578.158,53.101c16.347-13.483,36.75-20.881,58.228-20.881
		c24.46,0,47.369,9.545,64.671,26.728c17.301,17.182,26.728,40.21,26.728,64.67C727.784,145.214,720.386,165.499,706.903,181.845z"
		/>
</g>
</svg>
