<?xml version="1.0" encoding="utf-8"?>
<!-- Generator: Adobe Illustrator 16.0.0, SVG Export Plug-In . SVG Version: 6.00 Build 0)  -->
<!DOCTYPE svg PUBLIC "-//W3C//DTD SVG 1.1//EN" "http://www.w3.org/Graphics/SVG/1.1/DTD/svg11.dtd" [
	<!ENTITY ns_extend "http://ns.adobe.com/Extensibility/1.0/">
	<!ENTITY ns_ai "http://ns.adobe.com/AdobeIllustrator/10.0/">
	<!ENTITY ns_graphs "http://ns.adobe.com/Graphs/1.0/">
	<!ENTITY ns_vars "http://ns.adobe.com/Variables/1.0/">
	<!ENTITY ns_imrep "http://ns.adobe.com/ImageReplacement/1.0/">
	<!ENTITY ns_sfw "http://ns.adobe.com/SaveForWeb/1.0/">
	<!ENTITY ns_custom "http://ns.adobe.com/GenericCustomNamespace/1.0/">
	<!ENTITY ns_adobe_xpath "http://ns.adobe.com/XPath/1.0/">
]>
<svg version="1.1" id="Layer_1" xmlns:x="&ns_extend;" xmlns:i="&ns_ai;" xmlns:graph="&ns_graphs;"
	 xmlns="http://www.w3.org/2000/svg" xmlns:xlink="http://www.w3.org/1999/xlink" x="0px" y="0px" width="960px" height="560px"
	 viewBox="0 0 960 560" enable-background="new 0 0 960 560" xml:space="preserve">
<metadata>
	<sfw  xmlns="&ns_sfw;">
		<slices></slices>
		<sliceSourceBounds  height="560" width="370.678" y="0.5" x="294.161" bottomLeftOrigin="true"></sliceSourceBounds>
	</sfw>
</metadata>
<path fill="#F90606" d="M665.339,124.391L558.94,85.666l14.958-41.096L451.442,0l-14.957,41.095L330.088,2.37l-35.427,97.331
	l205.403,74.76H304.496V560h310.733V216.377l14.684,5.345L665.339,124.391z M488.635,208.986v316.488h-57.544V208.986H488.635z
	 M339.022,208.986h57.543v316.488h-57.543V208.986L339.022,208.986z M580.703,525.475H523.16V208.986h57.543V525.475z
	 M472.077,44.252l57.568,20.954l-3.148,8.652l-57.569-20.954L472.077,44.252z M609.278,177.47L338.913,79.065l11.809-32.444
	l270.365,98.405L609.278,177.47z"/>
</svg>
